<?xml version="1.0" encoding="UTF-8"?>
<svg width="135px" height="40px" viewBox="0 0 135 40" version="1.1" xmlns="http://www.w3.org/2000/svg" xmlns:xlink="http://www.w3.org/1999/xlink">
    <title>google-play-badge</title>
    <defs>
        <polygon id="path-1" points="0 0 134.94 0 134.94 39.94 0 39.94"></polygon>
    </defs>
    <g id="Page-2" stroke="none" stroke-width="1" fill="none" fill-rule="evenodd">
        <g id="google-play-badge">
            <g id="Group-4">
                <mask id="mask-2" fill="white">
                    <use xlink:href="#path-1"></use>
                </mask>
                <g id="Clip-2"></g>
                <path d="M129.94,40 L4.94,40 C2.19,40 -0.06,37.75 -0.06,35 L-0.06,5 C-0.06,2.25 2.19,0 4.94,0 L129.94,0 C132.69,0 134.94,2.25 134.94,5 L134.94,35 C134.94,37.75 132.69,40 129.94,40" id="Fill-1" fill="#0A0B09" mask="url(#mask-2)"></path>
                <path d="M129.94,0 L4.94,0 C2.19,0 -0.06,2.25 -0.06,5 L-0.06,35 C-0.06,37.75 2.19,40 4.94,40 L129.94,40 C132.69,40 134.94,37.75 134.94,35 L134.94,5 C134.94,2.25 132.69,0 129.94,0 Z M129.94,0.8 C132.256,0.8 134.14,2.684 134.14,5 L134.14,35 C134.14,37.316 132.256,39.2 129.94,39.2 L4.94,39.2 C2.624,39.2 0.74,37.316 0.74,35 L0.74,5 C0.74,2.684 2.624,0.8 4.94,0.8 L129.94,0.8 L129.94,0.8 Z" id="Fill-3" mask="url(#mask-2)"></path>
            </g>
            <text id="GET-IT-ON" font-family="LucidaGrande, Lucida Grande" font-size="8.38" font-weight="normal" letter-spacing="0.0201" fill="#FFFFFE">
                <tspan x="40.981" y="11.1304859">GET IT</tspan>
                <tspan x="67.3627523" y="11.1304859" letter-spacing="-0.1475"> </tspan>
                <tspan x="69.8667367" y="11.1304859">ON</tspan>
            </text>
            <g id="Group-6" transform="translate(40.981000, 3.130486)" font-family="LucidaGrande, Lucida Grande" font-size="8.38" font-weight="normal">
                <text id="G" fill="#000000" fill-opacity="0">
                    <tspan x="-7.10542736e-15" y="8">G</tspan>
                </text>
                <text id="E" fill="#000000" fill-opacity="0">
                    <tspan x="6.87998" y="8">E</tspan>
                </text>
                <text id="T" fill="#000000" fill-opacity="0">
                    <tspan x="11.588702" y="8">T</tspan>
                </text>
                <text id="-"></text>
                <text id="I" fill="#000000" fill-opacity="0">
                    <tspan x="18.29354" y="8">I</tspan>
                </text>
                <text id="T" fill="#000000" fill-opacity="0">
                    <tspan x="20.43882" y="8">T</tspan>
                </text>
                <text id="-"></text>
                <text id="O" fill="#000000" fill-opacity="0">
                    <tspan x="26.97522" y="8">O</tspan>
                </text>
                <text id="N" fill="#000000" fill-opacity="0">
                    <tspan x="33.931458" y="8">N</tspan>
                </text>
            </g>
            <path d="M106.876,30 L108.742,30 L108.742,17.498 L106.876,17.498 L106.876,30 Z M123.683,22.002 L121.544,27.422 L121.48,27.422 L119.26,22.002 L117.25,22.002 L120.58,29.577 L118.681,33.791 L120.627,33.791 L125.758,22.002 L123.683,22.002 Z M113.1,28.58 C112.49,28.58 111.637,28.274 111.637,27.519 C111.637,26.554 112.699,26.184 113.615,26.184 C114.435,26.184 114.822,26.36 115.32,26.602 C115.175,27.76 114.178,28.58 113.1,28.58 Z M113.326,21.729 C111.975,21.729 110.576,22.324 109.997,23.643 L111.653,24.334 C112.007,23.643 112.666,23.417 113.358,23.417 C114.323,23.417 115.304,23.996 115.32,25.026 L115.32,25.154 C114.982,24.961 114.258,24.672 113.374,24.672 C111.588,24.672 109.771,25.653 109.771,27.486 C109.771,29.159 111.235,30.237 112.875,30.237 C114.129,30.237 114.822,29.674 115.255,29.014 L115.32,29.014 L115.32,29.98 L117.122,29.98 L117.122,25.187 C117.122,22.967 115.464,21.729 113.326,21.729 Z M101.794,23.524 L99.14,23.524 L99.14,19.239 L101.794,19.239 C103.189,19.239 103.981,20.394 103.981,21.381 C103.981,22.35 103.189,23.524 101.794,23.524 Z M101.746,17.499 L97.275,17.499 L97.275,30 L99.14,30 L99.14,25.264 L101.746,25.264 C103.814,25.264 105.847,23.767 105.847,21.381 C105.847,18.996 103.814,17.499 101.746,17.499 Z M77.365,28.583 C76.076,28.583 74.997,27.503 74.997,26.021 C74.997,24.522 76.076,23.427 77.365,23.427 C78.637,23.427 79.636,24.522 79.636,26.021 C79.636,27.503 78.637,28.583 77.365,28.583 Z M79.507,22.702 L79.443,22.702 C79.024,22.203 78.218,21.751 77.204,21.751 C75.077,21.751 73.127,23.621 73.127,26.021 C73.127,28.405 75.077,30.258 77.204,30.258 C78.218,30.258 79.024,29.807 79.443,29.292 L79.507,29.292 L79.507,29.903 C79.507,31.531 78.637,32.4 77.236,32.4 C76.092,32.4 75.383,31.579 75.093,30.886 L73.466,31.563 C73.933,32.69 75.173,34.076 77.236,34.076 C79.427,34.076 81.28,32.787 81.28,29.646 L81.28,22.009 L79.507,22.009 L79.507,22.702 Z M82.569,30 L84.437,30 L84.437,17.498 L82.569,17.498 L82.569,30 Z M87.192,25.876 C87.144,24.232 88.465,23.395 89.415,23.395 C90.157,23.395 90.785,23.766 90.995,24.297 L87.192,25.876 Z M92.992,24.458 C92.637,23.508 91.558,21.751 89.351,21.751 C87.16,21.751 85.339,23.476 85.339,26.005 C85.339,28.389 87.144,30.258 89.56,30.258 C91.509,30.258 92.637,29.066 93.105,28.373 L91.655,27.406 C91.171,28.115 90.511,28.583 89.56,28.583 C88.61,28.583 87.933,28.147 87.499,27.293 L93.185,24.941 L92.992,24.458 Z M47.684,23.057 L47.684,24.861 L52.002,24.861 C51.872,25.876 51.534,26.617 51.018,27.132 C50.39,27.761 49.407,28.454 47.684,28.454 C45.025,28.454 42.947,26.311 42.947,23.653 C42.947,20.995 45.025,18.852 47.684,18.852 C49.118,18.852 50.164,19.416 50.938,20.141 L52.211,18.868 C51.131,17.837 49.698,17.047 47.684,17.047 C44.042,17.047 40.981,20.012 40.981,23.653 C40.981,27.293 44.042,30.258 47.684,30.258 C49.649,30.258 51.131,29.613 52.291,28.405 C53.483,27.213 53.854,25.538 53.854,24.184 C53.854,23.766 53.822,23.379 53.757,23.057 L47.684,23.057 Z M58.763,28.583 C57.474,28.583 56.362,27.519 56.362,26.005 C56.362,24.474 57.474,23.427 58.763,23.427 C60.051,23.427 61.163,24.474 61.163,26.005 C61.163,27.519 60.051,28.583 58.763,28.583 Z M58.763,21.751 C56.41,21.751 54.493,23.54 54.493,26.005 C54.493,28.454 56.41,30.258 58.763,30.258 C61.115,30.258 63.032,28.454 63.032,26.005 C63.032,23.54 61.115,21.751 58.763,21.751 Z M68.076,28.583 C66.787,28.583 65.675,27.519 65.675,26.005 C65.675,24.474 66.787,23.427 68.076,23.427 C69.365,23.427 70.476,24.474 70.476,26.005 C70.476,27.519 69.365,28.583 68.076,28.583 Z M68.076,21.751 C65.724,21.751 63.807,23.54 63.807,26.005 C63.807,28.454 65.724,30.258 68.076,30.258 C70.428,30.258 72.345,28.454 72.345,26.005 C72.345,23.54 70.428,21.751 68.076,21.751 L68.076,21.751 Z" id="Fill-7" fill="#FFFFFE"></path>
            <path d="M20.657,19.424 L10.011,30.724 C10.011,30.727 10.012,30.729 10.012,30.731 C10.339,31.958 11.459,32.861 12.789,32.861 C13.321,32.861 13.82,32.718 14.248,32.465 L14.283,32.445 L26.267,25.53 L20.657,19.424" id="Fill-8" fill="#D84037"></path>
            <path d="M31.428,17.5 L31.418,17.493 L26.244,14.494 L20.415,19.681 L26.265,25.529 L31.411,22.56 C32.314,22.072 32.926,21.121 32.926,20.024 C32.926,18.935 32.322,17.989 31.428,17.5" id="Fill-9" fill="#F1B628"></path>
            <path d="M10.01,9.277 C9.946,9.513 9.913,9.761 9.913,10.017 L9.913,29.985 C9.913,30.241 9.946,30.489 10.011,30.724 L21.023,19.713 L10.01,9.277" id="Fill-10" fill="#5373AA"></path>
            <path d="M20.736,20.001 L26.246,14.492 L14.276,7.552 C13.841,7.291 13.333,7.141 12.789,7.141 C11.459,7.141 10.337,8.046 10.011,9.274 C10.01,9.275 10.01,9.276 10.01,9.277 L20.736,20.001" id="Fill-11" fill="#319F4F"></path>
        </g>
    </g>
</svg>